<svg xmlns="http://www.w3.org/2000/svg" viewBox="0 0 293.18 20.98"><defs><style>.cls-1{fill:#fff;}</style></defs><title>Asset 1</title><g id="Layer_2" data-name="Layer 2"><g id="Layer_1-2" data-name="Layer 1"><path class="cls-1" d="M107.37,0a10.39,10.39,0,1,0,10.39,10.38A10.38,10.38,0,0,0,107.37,0Zm0,16.61a6.23,6.23,0,1,1,6.23-6.23A6.23,6.23,0,0,1,107.37,16.61Z"/><path class="cls-1" d="M85.3,0A10.39,10.39,0,1,0,95.69,10.38,10.38,10.38,0,0,0,85.3,0Zm0,16.61a6.23,6.23,0,1,1,6.23-6.23A6.23,6.23,0,0,1,85.3,16.61Z"/><polygon class="cls-1" points="64.64 5.96 67.66 5.96 67.66 13.75 72.55 13.75 72.55 0.94 64.64 0.94 64.64 5.96"/><rect class="cls-1" x="67.66" y="15.03" width="4.89" height="4.91"/><path class="cls-1" d="M138.36,1.12a9.24,9.24,0,0,0-9.6,9.53,9.24,9.24,0,0,0,9.6,9.53,10.24,10.24,0,0,0,4.39-.94L144.22,21,147,18.74l-1.35-1.57a9.5,9.5,0,0,0,2.4-6.52A9.26,9.26,0,0,0,138.36,1.12Zm4.67,13-2.1-2.46-2.73,2.21,2.1,2.46a5.53,5.53,0,0,1-1.94.33c-3.39,0-5.57-2.63-5.57-6S135,4.6,138.36,4.6,144,7.2,144,10.65A6.57,6.57,0,0,1,143,14.16Z"/><path class="cls-1" d="M164.62,12.36c0,2.57-1.41,4.34-4.22,4.34s-4.28-1.77-4.28-4.34V1.43h-4V12.5c0,4.53,2.63,7.68,8.26,7.68s8.2-3.12,8.2-7.71v-11h-4Z"/><polygon class="cls-1" points="173.62 19.84 186.66 19.84 186.66 16.45 177.54 16.45 177.54 12.17 186.46 12.17 186.46 8.8 177.54 8.8 177.54 4.8 186.66 4.8 186.66 1.43 173.62 1.43 173.62 19.84"/><path class="cls-1" d="M198.11,8.58c-2.12-.5-3.67-.88-3.67-2.13s.94-1.87,2.71-1.87a7.85,7.85,0,0,1,5.27,2l2.18-2.87a10.26,10.26,0,0,0-7.18-2.57c-4.33,0-7,2.49-7,5.55,0,4.12,3.86,4.94,6.87,5.63,2.13.5,3.73,1,3.73,2.35,0,1.05-1,2.07-3.2,2.07A8.1,8.1,0,0,1,192,14.27l-2.15,3a10.61,10.61,0,0,0,7.81,2.93c5,0,7.38-2.54,7.38-5.91C205,10.18,201.15,9.27,198.11,8.58Z"/><polygon class="cls-1" points="207.72 4.88 213.11 4.88 213.11 19.84 217.06 19.84 217.06 4.88 222.41 4.88 222.41 1.43 207.72 1.43 207.72 4.88"/><rect class="cls-1" x="226.3" y="1.43" width="3.92" height="18.42"/><path class="cls-1" d="M244,1.12a9.25,9.25,0,0,0-9.61,9.53,9.62,9.62,0,0,0,19.24,0A9.26,9.26,0,0,0,244,1.12Zm0,15.58c-3.4,0-5.58-2.63-5.58-6S240.58,4.6,244,4.6s5.6,2.6,5.6,6.05S247.37,16.7,244,16.7Z"/><polygon class="cls-1" points="270.32 13.36 261.78 1.43 257.75 1.43 257.75 19.84 261.67 19.84 261.67 7.47 270.45 19.84 274.24 19.84 274.24 1.43 270.32 1.43 270.32 13.36"/><path class="cls-1" d="M286.28,8.58c-2.13-.5-3.68-.88-3.68-2.13s.94-1.87,2.71-1.87a7.85,7.85,0,0,1,5.27,2l2.18-2.87a10.26,10.26,0,0,0-7.18-2.57c-4.33,0-7,2.49-7,5.55,0,4.12,3.86,4.94,6.87,5.63,2.13.5,3.73,1,3.73,2.35,0,1.05-1.05,2.07-3.2,2.07a8.06,8.06,0,0,1-5.85-2.48l-2.16,3a10.62,10.62,0,0,0,7.82,2.93c5,0,7.37-2.54,7.37-5.91C293.18,10.18,289.31,9.27,286.28,8.58Z"/><polygon class="cls-1" points="0 4.91 5.38 4.91 5.38 19.87 9.33 19.87 9.33 4.91 14.69 4.91 14.69 1.46 0 1.46 0 4.91"/><polygon class="cls-1" points="31.2 8.69 22.5 8.69 22.5 1.46 18.58 1.46 18.58 19.87 22.5 19.87 22.5 12.14 31.2 12.14 31.2 19.87 35.15 19.87 35.15 1.46 31.2 1.46 31.2 8.69"/><polygon class="cls-1" points="40.15 19.87 53.18 19.87 53.18 16.48 44.07 16.48 44.07 12.2 52.98 12.2 52.98 8.83 44.07 8.83 44.07 4.83 53.18 4.83 53.18 1.46 40.15 1.46 40.15 19.87"/></g></g></svg>